%TF.GenerationSoftware,KiCad,Pcbnew,10.0.6*%
%TF.CreationDate,2026-10-10T18:48:10-04:00*%
%TF.ProjectId,Starbie,53746172-6269-4652-9e6b-696361645f70,rev?*%
%TF.SameCoordinates,Original*%
%TF.FileFunction,Legend,Top*%
%TF.FilePolarity,Positive*%
%FSLAX46Y46*%
G04 Gerber Fmt 4.6, Leading zero omitted, Abs format (unit mm)*
G04 Created by KiCad (PCBNEW 10.0.6) date 2026-10-10 18:48:10*
%MOMM*%
%LPD*%
G01*
G04 APERTURE LIST*
%ADD10C,0.150000*%
%ADD11C,0.120000*%
%ADD12C,0.127000*%
%ADD13C,0.100000*%
%ADD14C,0.504000*%
G04 APERTURE END LIST*
D10*
X96659867Y-81458600D02*
X96802724Y-81506219D01*
X96802724Y-81506219D02*
X97040819Y-81506219D01*
X97040819Y-81506219D02*
X97136057Y-81458600D01*
X97136057Y-81458600D02*
X97183676Y-81410980D01*
X97183676Y-81410980D02*
X97231295Y-81315742D01*
X97231295Y-81315742D02*
X97231295Y-81220504D01*
X97231295Y-81220504D02*
X97183676Y-81125266D01*
X97183676Y-81125266D02*
X97136057Y-81077647D01*
X97136057Y-81077647D02*
X97040819Y-81030028D01*
X97040819Y-81030028D02*
X96850343Y-80982409D01*
X96850343Y-80982409D02*
X96755105Y-80934790D01*
X96755105Y-80934790D02*
X96707486Y-80887171D01*
X96707486Y-80887171D02*
X96659867Y-80791933D01*
X96659867Y-80791933D02*
X96659867Y-80696695D01*
X96659867Y-80696695D02*
X96707486Y-80601457D01*
X96707486Y-80601457D02*
X96755105Y-80553838D01*
X96755105Y-80553838D02*
X96850343Y-80506219D01*
X96850343Y-80506219D02*
X97088438Y-80506219D01*
X97088438Y-80506219D02*
X97231295Y-80553838D01*
X97564629Y-80506219D02*
X97802724Y-81506219D01*
X97802724Y-81506219D02*
X97993200Y-80791933D01*
X97993200Y-80791933D02*
X98183676Y-81506219D01*
X98183676Y-81506219D02*
X98421772Y-80506219D01*
X99326533Y-81506219D02*
X98755105Y-81506219D01*
X99040819Y-81506219D02*
X99040819Y-80506219D01*
X99040819Y-80506219D02*
X98945581Y-80649076D01*
X98945581Y-80649076D02*
X98850343Y-80744314D01*
X98850343Y-80744314D02*
X98755105Y-80791933D01*
X190587333Y-76766819D02*
X190254000Y-76290628D01*
X190015905Y-76766819D02*
X190015905Y-75766819D01*
X190015905Y-75766819D02*
X190396857Y-75766819D01*
X190396857Y-75766819D02*
X190492095Y-75814438D01*
X190492095Y-75814438D02*
X190539714Y-75862057D01*
X190539714Y-75862057D02*
X190587333Y-75957295D01*
X190587333Y-75957295D02*
X190587333Y-76100152D01*
X190587333Y-76100152D02*
X190539714Y-76195390D01*
X190539714Y-76195390D02*
X190492095Y-76243009D01*
X190492095Y-76243009D02*
X190396857Y-76290628D01*
X190396857Y-76290628D02*
X190015905Y-76290628D01*
X190920667Y-75766819D02*
X191539714Y-75766819D01*
X191539714Y-75766819D02*
X191206381Y-76147771D01*
X191206381Y-76147771D02*
X191349238Y-76147771D01*
X191349238Y-76147771D02*
X191444476Y-76195390D01*
X191444476Y-76195390D02*
X191492095Y-76243009D01*
X191492095Y-76243009D02*
X191539714Y-76338247D01*
X191539714Y-76338247D02*
X191539714Y-76576342D01*
X191539714Y-76576342D02*
X191492095Y-76671580D01*
X191492095Y-76671580D02*
X191444476Y-76719200D01*
X191444476Y-76719200D02*
X191349238Y-76766819D01*
X191349238Y-76766819D02*
X191063524Y-76766819D01*
X191063524Y-76766819D02*
X190968286Y-76719200D01*
X190968286Y-76719200D02*
X190920667Y-76671580D01*
X143808219Y-95818104D02*
X144617742Y-95818104D01*
X144617742Y-95818104D02*
X144712980Y-95770485D01*
X144712980Y-95770485D02*
X144760600Y-95722866D01*
X144760600Y-95722866D02*
X144808219Y-95627628D01*
X144808219Y-95627628D02*
X144808219Y-95437152D01*
X144808219Y-95437152D02*
X144760600Y-95341914D01*
X144760600Y-95341914D02*
X144712980Y-95294295D01*
X144712980Y-95294295D02*
X144617742Y-95246676D01*
X144617742Y-95246676D02*
X143808219Y-95246676D01*
X143903457Y-94818104D02*
X143855838Y-94770485D01*
X143855838Y-94770485D02*
X143808219Y-94675247D01*
X143808219Y-94675247D02*
X143808219Y-94437152D01*
X143808219Y-94437152D02*
X143855838Y-94341914D01*
X143855838Y-94341914D02*
X143903457Y-94294295D01*
X143903457Y-94294295D02*
X143998695Y-94246676D01*
X143998695Y-94246676D02*
X144093933Y-94246676D01*
X144093933Y-94246676D02*
X144236790Y-94294295D01*
X144236790Y-94294295D02*
X144808219Y-94865723D01*
X144808219Y-94865723D02*
X144808219Y-94246676D01*
X172148667Y-92185000D02*
X172291524Y-92232619D01*
X172291524Y-92232619D02*
X172529619Y-92232619D01*
X172529619Y-92232619D02*
X172624857Y-92185000D01*
X172624857Y-92185000D02*
X172672476Y-92137380D01*
X172672476Y-92137380D02*
X172720095Y-92042142D01*
X172720095Y-92042142D02*
X172720095Y-91946904D01*
X172720095Y-91946904D02*
X172672476Y-91851666D01*
X172672476Y-91851666D02*
X172624857Y-91804047D01*
X172624857Y-91804047D02*
X172529619Y-91756428D01*
X172529619Y-91756428D02*
X172339143Y-91708809D01*
X172339143Y-91708809D02*
X172243905Y-91661190D01*
X172243905Y-91661190D02*
X172196286Y-91613571D01*
X172196286Y-91613571D02*
X172148667Y-91518333D01*
X172148667Y-91518333D02*
X172148667Y-91423095D01*
X172148667Y-91423095D02*
X172196286Y-91327857D01*
X172196286Y-91327857D02*
X172243905Y-91280238D01*
X172243905Y-91280238D02*
X172339143Y-91232619D01*
X172339143Y-91232619D02*
X172577238Y-91232619D01*
X172577238Y-91232619D02*
X172720095Y-91280238D01*
X173053429Y-91232619D02*
X173291524Y-92232619D01*
X173291524Y-92232619D02*
X173482000Y-91518333D01*
X173482000Y-91518333D02*
X173672476Y-92232619D01*
X173672476Y-92232619D02*
X173910572Y-91232619D01*
X174196286Y-91232619D02*
X174815333Y-91232619D01*
X174815333Y-91232619D02*
X174482000Y-91613571D01*
X174482000Y-91613571D02*
X174624857Y-91613571D01*
X174624857Y-91613571D02*
X174720095Y-91661190D01*
X174720095Y-91661190D02*
X174767714Y-91708809D01*
X174767714Y-91708809D02*
X174815333Y-91804047D01*
X174815333Y-91804047D02*
X174815333Y-92042142D01*
X174815333Y-92042142D02*
X174767714Y-92137380D01*
X174767714Y-92137380D02*
X174720095Y-92185000D01*
X174720095Y-92185000D02*
X174624857Y-92232619D01*
X174624857Y-92232619D02*
X174339143Y-92232619D01*
X174339143Y-92232619D02*
X174243905Y-92185000D01*
X174243905Y-92185000D02*
X174196286Y-92137380D01*
X97726667Y-109373200D02*
X97869524Y-109420819D01*
X97869524Y-109420819D02*
X98107619Y-109420819D01*
X98107619Y-109420819D02*
X98202857Y-109373200D01*
X98202857Y-109373200D02*
X98250476Y-109325580D01*
X98250476Y-109325580D02*
X98298095Y-109230342D01*
X98298095Y-109230342D02*
X98298095Y-109135104D01*
X98298095Y-109135104D02*
X98250476Y-109039866D01*
X98250476Y-109039866D02*
X98202857Y-108992247D01*
X98202857Y-108992247D02*
X98107619Y-108944628D01*
X98107619Y-108944628D02*
X97917143Y-108897009D01*
X97917143Y-108897009D02*
X97821905Y-108849390D01*
X97821905Y-108849390D02*
X97774286Y-108801771D01*
X97774286Y-108801771D02*
X97726667Y-108706533D01*
X97726667Y-108706533D02*
X97726667Y-108611295D01*
X97726667Y-108611295D02*
X97774286Y-108516057D01*
X97774286Y-108516057D02*
X97821905Y-108468438D01*
X97821905Y-108468438D02*
X97917143Y-108420819D01*
X97917143Y-108420819D02*
X98155238Y-108420819D01*
X98155238Y-108420819D02*
X98298095Y-108468438D01*
X98631429Y-108420819D02*
X98869524Y-109420819D01*
X98869524Y-109420819D02*
X99060000Y-108706533D01*
X99060000Y-108706533D02*
X99250476Y-109420819D01*
X99250476Y-109420819D02*
X99488572Y-108420819D01*
X99821905Y-108516057D02*
X99869524Y-108468438D01*
X99869524Y-108468438D02*
X99964762Y-108420819D01*
X99964762Y-108420819D02*
X100202857Y-108420819D01*
X100202857Y-108420819D02*
X100298095Y-108468438D01*
X100298095Y-108468438D02*
X100345714Y-108516057D01*
X100345714Y-108516057D02*
X100393333Y-108611295D01*
X100393333Y-108611295D02*
X100393333Y-108706533D01*
X100393333Y-108706533D02*
X100345714Y-108849390D01*
X100345714Y-108849390D02*
X99774286Y-109420819D01*
X99774286Y-109420819D02*
X100393333Y-109420819D01*
X164946105Y-77004219D02*
X164946105Y-76004219D01*
X164946105Y-76004219D02*
X165184200Y-76004219D01*
X165184200Y-76004219D02*
X165327057Y-76051838D01*
X165327057Y-76051838D02*
X165422295Y-76147076D01*
X165422295Y-76147076D02*
X165469914Y-76242314D01*
X165469914Y-76242314D02*
X165517533Y-76432790D01*
X165517533Y-76432790D02*
X165517533Y-76575647D01*
X165517533Y-76575647D02*
X165469914Y-76766123D01*
X165469914Y-76766123D02*
X165422295Y-76861361D01*
X165422295Y-76861361D02*
X165327057Y-76956600D01*
X165327057Y-76956600D02*
X165184200Y-77004219D01*
X165184200Y-77004219D02*
X164946105Y-77004219D01*
X166469914Y-77004219D02*
X165898486Y-77004219D01*
X166184200Y-77004219D02*
X166184200Y-76004219D01*
X166184200Y-76004219D02*
X166088962Y-76147076D01*
X166088962Y-76147076D02*
X165993724Y-76242314D01*
X165993724Y-76242314D02*
X165898486Y-76289933D01*
X161612295Y-77374219D02*
X161612295Y-76374219D01*
X162183723Y-77374219D02*
X161755152Y-76802790D01*
X162183723Y-76374219D02*
X161612295Y-76945647D01*
X122732867Y-61129038D02*
X122666200Y-61081419D01*
X122666200Y-61081419D02*
X122566200Y-61081419D01*
X122566200Y-61081419D02*
X122466200Y-61129038D01*
X122466200Y-61129038D02*
X122399534Y-61224276D01*
X122399534Y-61224276D02*
X122366200Y-61319514D01*
X122366200Y-61319514D02*
X122332867Y-61509990D01*
X122332867Y-61509990D02*
X122332867Y-61652847D01*
X122332867Y-61652847D02*
X122366200Y-61843323D01*
X122366200Y-61843323D02*
X122399534Y-61938561D01*
X122399534Y-61938561D02*
X122466200Y-62033800D01*
X122466200Y-62033800D02*
X122566200Y-62081419D01*
X122566200Y-62081419D02*
X122632867Y-62081419D01*
X122632867Y-62081419D02*
X122732867Y-62033800D01*
X122732867Y-62033800D02*
X122766200Y-61986180D01*
X122766200Y-61986180D02*
X122766200Y-61652847D01*
X122766200Y-61652847D02*
X122632867Y-61652847D01*
X123066200Y-62081419D02*
X123066200Y-61081419D01*
X123066200Y-61081419D02*
X123466200Y-62081419D01*
X123466200Y-62081419D02*
X123466200Y-61081419D01*
X123799533Y-62081419D02*
X123799533Y-61081419D01*
X123799533Y-61081419D02*
X123966200Y-61081419D01*
X123966200Y-61081419D02*
X124066200Y-61129038D01*
X124066200Y-61129038D02*
X124132867Y-61224276D01*
X124132867Y-61224276D02*
X124166200Y-61319514D01*
X124166200Y-61319514D02*
X124199533Y-61509990D01*
X124199533Y-61509990D02*
X124199533Y-61652847D01*
X124199533Y-61652847D02*
X124166200Y-61843323D01*
X124166200Y-61843323D02*
X124132867Y-61938561D01*
X124132867Y-61938561D02*
X124066200Y-62033800D01*
X124066200Y-62033800D02*
X123966200Y-62081419D01*
X123966200Y-62081419D02*
X123799533Y-62081419D01*
X124872866Y-61081419D02*
X125106200Y-62081419D01*
X125106200Y-62081419D02*
X125339533Y-61081419D01*
X125572866Y-62081419D02*
X125572866Y-61081419D01*
X125572866Y-61081419D02*
X125739533Y-61081419D01*
X125739533Y-61081419D02*
X125839533Y-61129038D01*
X125839533Y-61129038D02*
X125906200Y-61224276D01*
X125906200Y-61224276D02*
X125939533Y-61319514D01*
X125939533Y-61319514D02*
X125972866Y-61509990D01*
X125972866Y-61509990D02*
X125972866Y-61652847D01*
X125972866Y-61652847D02*
X125939533Y-61843323D01*
X125939533Y-61843323D02*
X125906200Y-61938561D01*
X125906200Y-61938561D02*
X125839533Y-62033800D01*
X125839533Y-62033800D02*
X125739533Y-62081419D01*
X125739533Y-62081419D02*
X125572866Y-62081419D01*
X126272866Y-62081419D02*
X126272866Y-61081419D01*
X126272866Y-61081419D02*
X126439533Y-61081419D01*
X126439533Y-61081419D02*
X126539533Y-61129038D01*
X126539533Y-61129038D02*
X126606200Y-61224276D01*
X126606200Y-61224276D02*
X126639533Y-61319514D01*
X126639533Y-61319514D02*
X126672866Y-61509990D01*
X126672866Y-61509990D02*
X126672866Y-61652847D01*
X126672866Y-61652847D02*
X126639533Y-61843323D01*
X126639533Y-61843323D02*
X126606200Y-61938561D01*
X126606200Y-61938561D02*
X126539533Y-62033800D01*
X126539533Y-62033800D02*
X126439533Y-62081419D01*
X126439533Y-62081419D02*
X126272866Y-62081419D01*
X127512866Y-62033800D02*
X127612866Y-62081419D01*
X127612866Y-62081419D02*
X127779533Y-62081419D01*
X127779533Y-62081419D02*
X127846199Y-62033800D01*
X127846199Y-62033800D02*
X127879533Y-61986180D01*
X127879533Y-61986180D02*
X127912866Y-61890942D01*
X127912866Y-61890942D02*
X127912866Y-61795704D01*
X127912866Y-61795704D02*
X127879533Y-61700466D01*
X127879533Y-61700466D02*
X127846199Y-61652847D01*
X127846199Y-61652847D02*
X127779533Y-61605228D01*
X127779533Y-61605228D02*
X127646199Y-61557609D01*
X127646199Y-61557609D02*
X127579533Y-61509990D01*
X127579533Y-61509990D02*
X127546199Y-61462371D01*
X127546199Y-61462371D02*
X127512866Y-61367133D01*
X127512866Y-61367133D02*
X127512866Y-61271895D01*
X127512866Y-61271895D02*
X127546199Y-61176657D01*
X127546199Y-61176657D02*
X127579533Y-61129038D01*
X127579533Y-61129038D02*
X127646199Y-61081419D01*
X127646199Y-61081419D02*
X127812866Y-61081419D01*
X127812866Y-61081419D02*
X127912866Y-61129038D01*
X128612866Y-61986180D02*
X128579533Y-62033800D01*
X128579533Y-62033800D02*
X128479533Y-62081419D01*
X128479533Y-62081419D02*
X128412866Y-62081419D01*
X128412866Y-62081419D02*
X128312866Y-62033800D01*
X128312866Y-62033800D02*
X128246200Y-61938561D01*
X128246200Y-61938561D02*
X128212866Y-61843323D01*
X128212866Y-61843323D02*
X128179533Y-61652847D01*
X128179533Y-61652847D02*
X128179533Y-61509990D01*
X128179533Y-61509990D02*
X128212866Y-61319514D01*
X128212866Y-61319514D02*
X128246200Y-61224276D01*
X128246200Y-61224276D02*
X128312866Y-61129038D01*
X128312866Y-61129038D02*
X128412866Y-61081419D01*
X128412866Y-61081419D02*
X128479533Y-61081419D01*
X128479533Y-61081419D02*
X128579533Y-61129038D01*
X128579533Y-61129038D02*
X128612866Y-61176657D01*
X129246200Y-62081419D02*
X128912866Y-62081419D01*
X128912866Y-62081419D02*
X128912866Y-61081419D01*
X130163200Y-62033800D02*
X130263200Y-62081419D01*
X130263200Y-62081419D02*
X130429867Y-62081419D01*
X130429867Y-62081419D02*
X130496533Y-62033800D01*
X130496533Y-62033800D02*
X130529867Y-61986180D01*
X130529867Y-61986180D02*
X130563200Y-61890942D01*
X130563200Y-61890942D02*
X130563200Y-61795704D01*
X130563200Y-61795704D02*
X130529867Y-61700466D01*
X130529867Y-61700466D02*
X130496533Y-61652847D01*
X130496533Y-61652847D02*
X130429867Y-61605228D01*
X130429867Y-61605228D02*
X130296533Y-61557609D01*
X130296533Y-61557609D02*
X130229867Y-61509990D01*
X130229867Y-61509990D02*
X130196533Y-61462371D01*
X130196533Y-61462371D02*
X130163200Y-61367133D01*
X130163200Y-61367133D02*
X130163200Y-61271895D01*
X130163200Y-61271895D02*
X130196533Y-61176657D01*
X130196533Y-61176657D02*
X130229867Y-61129038D01*
X130229867Y-61129038D02*
X130296533Y-61081419D01*
X130296533Y-61081419D02*
X130463200Y-61081419D01*
X130463200Y-61081419D02*
X130563200Y-61129038D01*
X130863200Y-62081419D02*
X130863200Y-61081419D01*
X130863200Y-61081419D02*
X131029867Y-61081419D01*
X131029867Y-61081419D02*
X131129867Y-61129038D01*
X131129867Y-61129038D02*
X131196534Y-61224276D01*
X131196534Y-61224276D02*
X131229867Y-61319514D01*
X131229867Y-61319514D02*
X131263200Y-61509990D01*
X131263200Y-61509990D02*
X131263200Y-61652847D01*
X131263200Y-61652847D02*
X131229867Y-61843323D01*
X131229867Y-61843323D02*
X131196534Y-61938561D01*
X131196534Y-61938561D02*
X131129867Y-62033800D01*
X131129867Y-62033800D02*
X131029867Y-62081419D01*
X131029867Y-62081419D02*
X130863200Y-62081419D01*
X131529867Y-61795704D02*
X131863200Y-61795704D01*
X131463200Y-62081419D02*
X131696534Y-61081419D01*
X131696534Y-61081419D02*
X131929867Y-62081419D01*
X115174733Y-91905219D02*
X114841400Y-91429028D01*
X114603305Y-91905219D02*
X114603305Y-90905219D01*
X114603305Y-90905219D02*
X114984257Y-90905219D01*
X114984257Y-90905219D02*
X115079495Y-90952838D01*
X115079495Y-90952838D02*
X115127114Y-91000457D01*
X115127114Y-91000457D02*
X115174733Y-91095695D01*
X115174733Y-91095695D02*
X115174733Y-91238552D01*
X115174733Y-91238552D02*
X115127114Y-91333790D01*
X115127114Y-91333790D02*
X115079495Y-91381409D01*
X115079495Y-91381409D02*
X114984257Y-91429028D01*
X114984257Y-91429028D02*
X114603305Y-91429028D01*
X116127114Y-91905219D02*
X115555686Y-91905219D01*
X115841400Y-91905219D02*
X115841400Y-90905219D01*
X115841400Y-90905219D02*
X115746162Y-91048076D01*
X115746162Y-91048076D02*
X115650924Y-91143314D01*
X115650924Y-91143314D02*
X115555686Y-91190933D01*
X163543566Y-141349809D02*
X163210233Y-141349809D01*
X163210233Y-141873619D02*
X163210233Y-140873619D01*
X163210233Y-140873619D02*
X163686423Y-140873619D01*
X164591185Y-141873619D02*
X164019757Y-141873619D01*
X164305471Y-141873619D02*
X164305471Y-140873619D01*
X164305471Y-140873619D02*
X164210233Y-141016476D01*
X164210233Y-141016476D02*
X164114995Y-141111714D01*
X164114995Y-141111714D02*
X164019757Y-141159333D01*
X178547733Y-77198619D02*
X178214400Y-76722428D01*
X177976305Y-77198619D02*
X177976305Y-76198619D01*
X177976305Y-76198619D02*
X178357257Y-76198619D01*
X178357257Y-76198619D02*
X178452495Y-76246238D01*
X178452495Y-76246238D02*
X178500114Y-76293857D01*
X178500114Y-76293857D02*
X178547733Y-76389095D01*
X178547733Y-76389095D02*
X178547733Y-76531952D01*
X178547733Y-76531952D02*
X178500114Y-76627190D01*
X178500114Y-76627190D02*
X178452495Y-76674809D01*
X178452495Y-76674809D02*
X178357257Y-76722428D01*
X178357257Y-76722428D02*
X177976305Y-76722428D01*
X178928686Y-76293857D02*
X178976305Y-76246238D01*
X178976305Y-76246238D02*
X179071543Y-76198619D01*
X179071543Y-76198619D02*
X179309638Y-76198619D01*
X179309638Y-76198619D02*
X179404876Y-76246238D01*
X179404876Y-76246238D02*
X179452495Y-76293857D01*
X179452495Y-76293857D02*
X179500114Y-76389095D01*
X179500114Y-76389095D02*
X179500114Y-76484333D01*
X179500114Y-76484333D02*
X179452495Y-76627190D01*
X179452495Y-76627190D02*
X178881067Y-77198619D01*
X178881067Y-77198619D02*
X179500114Y-77198619D01*
%TO.C,SW1*%
D11*
X91008200Y-81940400D02*
X104978200Y-81940400D01*
X91008200Y-95910400D02*
X91008200Y-81940400D01*
X104978200Y-81940400D02*
X104978200Y-95910400D01*
X104978200Y-95910400D02*
X91008200Y-95910400D01*
%TO.C,R3*%
X187884000Y-78232000D02*
X188834000Y-78232000D01*
X193624000Y-78232000D02*
X192674000Y-78232000D01*
X188834000Y-77312000D02*
X192674000Y-77312000D01*
X192674000Y-79152000D01*
X188834000Y-79152000D01*
X188834000Y-77312000D01*
%TO.C,U2*%
X145253400Y-97216200D02*
X145253400Y-95606200D01*
X145253400Y-97216200D02*
X147253400Y-97216200D01*
X145533400Y-91176200D02*
X157793400Y-91176200D01*
X145533400Y-96926200D02*
X145533400Y-91186200D01*
X157793400Y-91176200D02*
X157793400Y-96936200D01*
X157793400Y-96936200D02*
X145543400Y-96936200D01*
%TO.C,SW3*%
X172102000Y-92777800D02*
X173482000Y-92777800D01*
X172102000Y-94157800D02*
X172102000Y-92777800D01*
X172102000Y-95427800D02*
X172102000Y-100617800D01*
X172102000Y-95427800D02*
X174862000Y-95427800D01*
X172102000Y-100617800D02*
X174862000Y-100617800D01*
X174862000Y-95427800D02*
X174862000Y-100617800D01*
%TO.C,SW2*%
X92075000Y-109855000D02*
X106045000Y-109855000D01*
X92075000Y-123825000D02*
X92075000Y-109855000D01*
X106045000Y-109855000D02*
X106045000Y-123825000D01*
X106045000Y-123825000D02*
X92075000Y-123825000D01*
%TO.C,D1*%
X162964200Y-77549400D02*
X168404200Y-77549400D01*
X162964200Y-77679400D02*
X162964200Y-77549400D01*
X162964200Y-80359400D02*
X162964200Y-80489400D01*
X162964200Y-80489400D02*
X168404200Y-80489400D01*
X163744200Y-77549400D02*
X163744200Y-80489400D01*
X163864200Y-77549400D02*
X163864200Y-80489400D01*
X163984200Y-77549400D02*
X163984200Y-80489400D01*
X168404200Y-77549400D02*
X168404200Y-77679400D01*
X168404200Y-80489400D02*
X168404200Y-80359400D01*
%TO.C,J1*%
X113360200Y-58070600D02*
X140792200Y-58070600D01*
X113360200Y-63277600D02*
X140792200Y-63277600D01*
X113360200Y-80168600D02*
X140792200Y-80168600D01*
X113360200Y-85248600D02*
X113487200Y-58070600D01*
X121936200Y-60797600D02*
X121936200Y-59467600D01*
X123266200Y-60797600D02*
X121936200Y-60797600D01*
X124536200Y-58137600D02*
X132216200Y-58137600D01*
X124536200Y-60797600D02*
X124536200Y-58137600D01*
X124536200Y-60797600D02*
X132216200Y-60797600D01*
X132216200Y-60797600D02*
X132216200Y-58137600D01*
X140792200Y-85248600D02*
X113360200Y-85248600D01*
X140792200Y-85248600D02*
X140792200Y-58070600D01*
%TO.C,U1*%
D12*
X122492800Y-104219672D02*
X122492800Y-96224400D01*
X122992800Y-95724400D02*
X124002800Y-95724400D01*
D13*
X124002800Y-93243400D02*
X124002800Y-107213400D01*
D12*
X124002800Y-93243400D02*
X124002800Y-107213400D01*
X124002800Y-104723400D02*
X122992528Y-104719672D01*
X143052800Y-91338400D02*
X125907800Y-91338400D01*
X143052800Y-109118400D02*
X125907800Y-109118400D01*
X144957800Y-107213400D02*
X144957800Y-93243400D01*
X122492800Y-96224400D02*
G75*
G02*
X122992800Y-95724400I500000J0D01*
G01*
X122992528Y-104719672D02*
G75*
G02*
X122492828Y-104219672I272J499972D01*
G01*
X124002800Y-93243400D02*
G75*
G02*
X125907800Y-91338400I1905000J0D01*
G01*
X125907800Y-109118400D02*
G75*
G02*
X124002800Y-107213400I0J1905000D01*
G01*
X143052800Y-91338400D02*
G75*
G02*
X144957800Y-93243400I-1J-1905001D01*
G01*
X144957800Y-107213400D02*
G75*
G02*
X143052800Y-109118400I-1905001J1D01*
G01*
D14*
X124495800Y-109178400D02*
G75*
G02*
X123991800Y-109178400I-252000J0D01*
G01*
X123991800Y-109178400D02*
G75*
G02*
X124495800Y-109178400I252000J0D01*
G01*
X125375800Y-108035400D02*
G75*
G02*
X124871800Y-108035400I-252000J0D01*
G01*
X124871800Y-108035400D02*
G75*
G02*
X125375800Y-108035400I252000J0D01*
G01*
%TO.C,R1*%
D11*
X112471400Y-93370400D02*
X113421400Y-93370400D01*
X118211400Y-93370400D02*
X117261400Y-93370400D01*
X113421400Y-92450400D02*
X117261400Y-92450400D01*
X117261400Y-94290400D01*
X113421400Y-94290400D01*
X113421400Y-92450400D01*
%TO.C,F1*%
X162490648Y-142358800D02*
X165263152Y-142358800D01*
X162490648Y-145778800D02*
X165263152Y-145778800D01*
%TO.C,R2*%
X175844400Y-78663800D02*
X176794400Y-78663800D01*
X181584400Y-78663800D02*
X180634400Y-78663800D01*
X176794400Y-77743800D02*
X180634400Y-77743800D01*
X180634400Y-79583800D01*
X176794400Y-79583800D01*
X176794400Y-77743800D01*
%TO.C,J2*%
X145940000Y-115460000D02*
X147320000Y-115460000D01*
X145940000Y-116840000D02*
X145940000Y-115460000D01*
X145940000Y-118110000D02*
X145940000Y-136000000D01*
X145940000Y-118110000D02*
X148700000Y-118110000D01*
X145940000Y-136000000D02*
X148700000Y-136000000D01*
X148700000Y-118110000D02*
X148700000Y-136000000D01*
%TD*%
M02*
