%TF.GenerationSoftware,KiCad,Pcbnew,10.0.6*%
%TF.CreationDate,2026-10-06T20:15:23-04:00*%
%TF.ProjectId,Starbie,53746172-6269-4652-9e6b-696361645f70,rev?*%
%TF.SameCoordinates,Original*%
%TF.FileFunction,Legend,Top*%
%TF.FilePolarity,Positive*%
%FSLAX46Y46*%
G04 Gerber Fmt 4.6, Leading zero omitted, Abs format (unit mm)*
G04 Created by KiCad (PCBNEW 10.0.6) date 2026-10-06 20:15:23*
%MOMM*%
%LPD*%
G01*
G04 APERTURE LIST*
%ADD10C,0.150000*%
%ADD11C,0.101600*%
%ADD12C,0.120000*%
%ADD13C,0.127000*%
%ADD14C,0.100000*%
%ADD15C,0.504000*%
G04 APERTURE END LIST*
D10*
X111999733Y-89466819D02*
X111666400Y-88990628D01*
X111428305Y-89466819D02*
X111428305Y-88466819D01*
X111428305Y-88466819D02*
X111809257Y-88466819D01*
X111809257Y-88466819D02*
X111904495Y-88514438D01*
X111904495Y-88514438D02*
X111952114Y-88562057D01*
X111952114Y-88562057D02*
X111999733Y-88657295D01*
X111999733Y-88657295D02*
X111999733Y-88800152D01*
X111999733Y-88800152D02*
X111952114Y-88895390D01*
X111952114Y-88895390D02*
X111904495Y-88943009D01*
X111904495Y-88943009D02*
X111809257Y-88990628D01*
X111809257Y-88990628D02*
X111428305Y-88990628D01*
X112952114Y-89466819D02*
X112380686Y-89466819D01*
X112666400Y-89466819D02*
X112666400Y-88466819D01*
X112666400Y-88466819D02*
X112571162Y-88609676D01*
X112571162Y-88609676D02*
X112475924Y-88704914D01*
X112475924Y-88704914D02*
X112380686Y-88752533D01*
X143808219Y-95818104D02*
X144617742Y-95818104D01*
X144617742Y-95818104D02*
X144712980Y-95770485D01*
X144712980Y-95770485D02*
X144760600Y-95722866D01*
X144760600Y-95722866D02*
X144808219Y-95627628D01*
X144808219Y-95627628D02*
X144808219Y-95437152D01*
X144808219Y-95437152D02*
X144760600Y-95341914D01*
X144760600Y-95341914D02*
X144712980Y-95294295D01*
X144712980Y-95294295D02*
X144617742Y-95246676D01*
X144617742Y-95246676D02*
X143808219Y-95246676D01*
X143903457Y-94818104D02*
X143855838Y-94770485D01*
X143855838Y-94770485D02*
X143808219Y-94675247D01*
X143808219Y-94675247D02*
X143808219Y-94437152D01*
X143808219Y-94437152D02*
X143855838Y-94341914D01*
X143855838Y-94341914D02*
X143903457Y-94294295D01*
X143903457Y-94294295D02*
X143998695Y-94246676D01*
X143998695Y-94246676D02*
X144093933Y-94246676D01*
X144093933Y-94246676D02*
X144236790Y-94294295D01*
X144236790Y-94294295D02*
X144808219Y-94865723D01*
X144808219Y-94865723D02*
X144808219Y-94246676D01*
D11*
X135152609Y-110824920D02*
X135152609Y-110310873D01*
X135152609Y-110310873D02*
X135122371Y-110250397D01*
X135122371Y-110250397D02*
X135092133Y-110220159D01*
X135092133Y-110220159D02*
X135031657Y-110189920D01*
X135031657Y-110189920D02*
X134910704Y-110189920D01*
X134910704Y-110189920D02*
X134850228Y-110220159D01*
X134850228Y-110220159D02*
X134819990Y-110250397D01*
X134819990Y-110250397D02*
X134789752Y-110310873D01*
X134789752Y-110310873D02*
X134789752Y-110824920D01*
X134154752Y-110189920D02*
X134517609Y-110189920D01*
X134336181Y-110189920D02*
X134336181Y-110824920D01*
X134336181Y-110824920D02*
X134396657Y-110734206D01*
X134396657Y-110734206D02*
X134457133Y-110673730D01*
X134457133Y-110673730D02*
X134517609Y-110643492D01*
D10*
X97726667Y-109373200D02*
X97869524Y-109420819D01*
X97869524Y-109420819D02*
X98107619Y-109420819D01*
X98107619Y-109420819D02*
X98202857Y-109373200D01*
X98202857Y-109373200D02*
X98250476Y-109325580D01*
X98250476Y-109325580D02*
X98298095Y-109230342D01*
X98298095Y-109230342D02*
X98298095Y-109135104D01*
X98298095Y-109135104D02*
X98250476Y-109039866D01*
X98250476Y-109039866D02*
X98202857Y-108992247D01*
X98202857Y-108992247D02*
X98107619Y-108944628D01*
X98107619Y-108944628D02*
X97917143Y-108897009D01*
X97917143Y-108897009D02*
X97821905Y-108849390D01*
X97821905Y-108849390D02*
X97774286Y-108801771D01*
X97774286Y-108801771D02*
X97726667Y-108706533D01*
X97726667Y-108706533D02*
X97726667Y-108611295D01*
X97726667Y-108611295D02*
X97774286Y-108516057D01*
X97774286Y-108516057D02*
X97821905Y-108468438D01*
X97821905Y-108468438D02*
X97917143Y-108420819D01*
X97917143Y-108420819D02*
X98155238Y-108420819D01*
X98155238Y-108420819D02*
X98298095Y-108468438D01*
X98631429Y-108420819D02*
X98869524Y-109420819D01*
X98869524Y-109420819D02*
X99060000Y-108706533D01*
X99060000Y-108706533D02*
X99250476Y-109420819D01*
X99250476Y-109420819D02*
X99488572Y-108420819D01*
X99821905Y-108516057D02*
X99869524Y-108468438D01*
X99869524Y-108468438D02*
X99964762Y-108420819D01*
X99964762Y-108420819D02*
X100202857Y-108420819D01*
X100202857Y-108420819D02*
X100298095Y-108468438D01*
X100298095Y-108468438D02*
X100345714Y-108516057D01*
X100345714Y-108516057D02*
X100393333Y-108611295D01*
X100393333Y-108611295D02*
X100393333Y-108706533D01*
X100393333Y-108706533D02*
X100345714Y-108849390D01*
X100345714Y-108849390D02*
X99774286Y-109420819D01*
X99774286Y-109420819D02*
X100393333Y-109420819D01*
X95186667Y-81433200D02*
X95329524Y-81480819D01*
X95329524Y-81480819D02*
X95567619Y-81480819D01*
X95567619Y-81480819D02*
X95662857Y-81433200D01*
X95662857Y-81433200D02*
X95710476Y-81385580D01*
X95710476Y-81385580D02*
X95758095Y-81290342D01*
X95758095Y-81290342D02*
X95758095Y-81195104D01*
X95758095Y-81195104D02*
X95710476Y-81099866D01*
X95710476Y-81099866D02*
X95662857Y-81052247D01*
X95662857Y-81052247D02*
X95567619Y-81004628D01*
X95567619Y-81004628D02*
X95377143Y-80957009D01*
X95377143Y-80957009D02*
X95281905Y-80909390D01*
X95281905Y-80909390D02*
X95234286Y-80861771D01*
X95234286Y-80861771D02*
X95186667Y-80766533D01*
X95186667Y-80766533D02*
X95186667Y-80671295D01*
X95186667Y-80671295D02*
X95234286Y-80576057D01*
X95234286Y-80576057D02*
X95281905Y-80528438D01*
X95281905Y-80528438D02*
X95377143Y-80480819D01*
X95377143Y-80480819D02*
X95615238Y-80480819D01*
X95615238Y-80480819D02*
X95758095Y-80528438D01*
X96091429Y-80480819D02*
X96329524Y-81480819D01*
X96329524Y-81480819D02*
X96520000Y-80766533D01*
X96520000Y-80766533D02*
X96710476Y-81480819D01*
X96710476Y-81480819D02*
X96948572Y-80480819D01*
X97853333Y-81480819D02*
X97281905Y-81480819D01*
X97567619Y-81480819D02*
X97567619Y-80480819D01*
X97567619Y-80480819D02*
X97472381Y-80623676D01*
X97472381Y-80623676D02*
X97377143Y-80718914D01*
X97377143Y-80718914D02*
X97281905Y-80766533D01*
X146986666Y-113914819D02*
X146986666Y-114629104D01*
X146986666Y-114629104D02*
X146939047Y-114771961D01*
X146939047Y-114771961D02*
X146843809Y-114867200D01*
X146843809Y-114867200D02*
X146700952Y-114914819D01*
X146700952Y-114914819D02*
X146605714Y-114914819D01*
X147415238Y-114010057D02*
X147462857Y-113962438D01*
X147462857Y-113962438D02*
X147558095Y-113914819D01*
X147558095Y-113914819D02*
X147796190Y-113914819D01*
X147796190Y-113914819D02*
X147891428Y-113962438D01*
X147891428Y-113962438D02*
X147939047Y-114010057D01*
X147939047Y-114010057D02*
X147986666Y-114105295D01*
X147986666Y-114105295D02*
X147986666Y-114200533D01*
X147986666Y-114200533D02*
X147939047Y-114343390D01*
X147939047Y-114343390D02*
X147367619Y-114914819D01*
X147367619Y-114914819D02*
X147986666Y-114914819D01*
X127936666Y-73349619D02*
X127936666Y-74063904D01*
X127936666Y-74063904D02*
X127889047Y-74206761D01*
X127889047Y-74206761D02*
X127793809Y-74302000D01*
X127793809Y-74302000D02*
X127650952Y-74349619D01*
X127650952Y-74349619D02*
X127555714Y-74349619D01*
X128936666Y-74349619D02*
X128365238Y-74349619D01*
X128650952Y-74349619D02*
X128650952Y-73349619D01*
X128650952Y-73349619D02*
X128555714Y-73492476D01*
X128555714Y-73492476D02*
X128460476Y-73587714D01*
X128460476Y-73587714D02*
X128365238Y-73635333D01*
X124155267Y-64685038D02*
X124088600Y-64637419D01*
X124088600Y-64637419D02*
X123988600Y-64637419D01*
X123988600Y-64637419D02*
X123888600Y-64685038D01*
X123888600Y-64685038D02*
X123821934Y-64780276D01*
X123821934Y-64780276D02*
X123788600Y-64875514D01*
X123788600Y-64875514D02*
X123755267Y-65065990D01*
X123755267Y-65065990D02*
X123755267Y-65208847D01*
X123755267Y-65208847D02*
X123788600Y-65399323D01*
X123788600Y-65399323D02*
X123821934Y-65494561D01*
X123821934Y-65494561D02*
X123888600Y-65589800D01*
X123888600Y-65589800D02*
X123988600Y-65637419D01*
X123988600Y-65637419D02*
X124055267Y-65637419D01*
X124055267Y-65637419D02*
X124155267Y-65589800D01*
X124155267Y-65589800D02*
X124188600Y-65542180D01*
X124188600Y-65542180D02*
X124188600Y-65208847D01*
X124188600Y-65208847D02*
X124055267Y-65208847D01*
X124488600Y-65637419D02*
X124488600Y-64637419D01*
X124488600Y-64637419D02*
X124888600Y-65637419D01*
X124888600Y-65637419D02*
X124888600Y-64637419D01*
X125221933Y-65637419D02*
X125221933Y-64637419D01*
X125221933Y-64637419D02*
X125388600Y-64637419D01*
X125388600Y-64637419D02*
X125488600Y-64685038D01*
X125488600Y-64685038D02*
X125555267Y-64780276D01*
X125555267Y-64780276D02*
X125588600Y-64875514D01*
X125588600Y-64875514D02*
X125621933Y-65065990D01*
X125621933Y-65065990D02*
X125621933Y-65208847D01*
X125621933Y-65208847D02*
X125588600Y-65399323D01*
X125588600Y-65399323D02*
X125555267Y-65494561D01*
X125555267Y-65494561D02*
X125488600Y-65589800D01*
X125488600Y-65589800D02*
X125388600Y-65637419D01*
X125388600Y-65637419D02*
X125221933Y-65637419D01*
X126295266Y-64637419D02*
X126528600Y-65637419D01*
X126528600Y-65637419D02*
X126761933Y-64637419D01*
X126995266Y-65637419D02*
X126995266Y-64637419D01*
X126995266Y-64637419D02*
X127161933Y-64637419D01*
X127161933Y-64637419D02*
X127261933Y-64685038D01*
X127261933Y-64685038D02*
X127328600Y-64780276D01*
X127328600Y-64780276D02*
X127361933Y-64875514D01*
X127361933Y-64875514D02*
X127395266Y-65065990D01*
X127395266Y-65065990D02*
X127395266Y-65208847D01*
X127395266Y-65208847D02*
X127361933Y-65399323D01*
X127361933Y-65399323D02*
X127328600Y-65494561D01*
X127328600Y-65494561D02*
X127261933Y-65589800D01*
X127261933Y-65589800D02*
X127161933Y-65637419D01*
X127161933Y-65637419D02*
X126995266Y-65637419D01*
X127695266Y-65637419D02*
X127695266Y-64637419D01*
X127695266Y-64637419D02*
X127861933Y-64637419D01*
X127861933Y-64637419D02*
X127961933Y-64685038D01*
X127961933Y-64685038D02*
X128028600Y-64780276D01*
X128028600Y-64780276D02*
X128061933Y-64875514D01*
X128061933Y-64875514D02*
X128095266Y-65065990D01*
X128095266Y-65065990D02*
X128095266Y-65208847D01*
X128095266Y-65208847D02*
X128061933Y-65399323D01*
X128061933Y-65399323D02*
X128028600Y-65494561D01*
X128028600Y-65494561D02*
X127961933Y-65589800D01*
X127961933Y-65589800D02*
X127861933Y-65637419D01*
X127861933Y-65637419D02*
X127695266Y-65637419D01*
X128935266Y-65589800D02*
X129035266Y-65637419D01*
X129035266Y-65637419D02*
X129201933Y-65637419D01*
X129201933Y-65637419D02*
X129268599Y-65589800D01*
X129268599Y-65589800D02*
X129301933Y-65542180D01*
X129301933Y-65542180D02*
X129335266Y-65446942D01*
X129335266Y-65446942D02*
X129335266Y-65351704D01*
X129335266Y-65351704D02*
X129301933Y-65256466D01*
X129301933Y-65256466D02*
X129268599Y-65208847D01*
X129268599Y-65208847D02*
X129201933Y-65161228D01*
X129201933Y-65161228D02*
X129068599Y-65113609D01*
X129068599Y-65113609D02*
X129001933Y-65065990D01*
X129001933Y-65065990D02*
X128968599Y-65018371D01*
X128968599Y-65018371D02*
X128935266Y-64923133D01*
X128935266Y-64923133D02*
X128935266Y-64827895D01*
X128935266Y-64827895D02*
X128968599Y-64732657D01*
X128968599Y-64732657D02*
X129001933Y-64685038D01*
X129001933Y-64685038D02*
X129068599Y-64637419D01*
X129068599Y-64637419D02*
X129235266Y-64637419D01*
X129235266Y-64637419D02*
X129335266Y-64685038D01*
X130035266Y-65542180D02*
X130001933Y-65589800D01*
X130001933Y-65589800D02*
X129901933Y-65637419D01*
X129901933Y-65637419D02*
X129835266Y-65637419D01*
X129835266Y-65637419D02*
X129735266Y-65589800D01*
X129735266Y-65589800D02*
X129668600Y-65494561D01*
X129668600Y-65494561D02*
X129635266Y-65399323D01*
X129635266Y-65399323D02*
X129601933Y-65208847D01*
X129601933Y-65208847D02*
X129601933Y-65065990D01*
X129601933Y-65065990D02*
X129635266Y-64875514D01*
X129635266Y-64875514D02*
X129668600Y-64780276D01*
X129668600Y-64780276D02*
X129735266Y-64685038D01*
X129735266Y-64685038D02*
X129835266Y-64637419D01*
X129835266Y-64637419D02*
X129901933Y-64637419D01*
X129901933Y-64637419D02*
X130001933Y-64685038D01*
X130001933Y-64685038D02*
X130035266Y-64732657D01*
X130668600Y-65637419D02*
X130335266Y-65637419D01*
X130335266Y-65637419D02*
X130335266Y-64637419D01*
X131585600Y-65589800D02*
X131685600Y-65637419D01*
X131685600Y-65637419D02*
X131852267Y-65637419D01*
X131852267Y-65637419D02*
X131918933Y-65589800D01*
X131918933Y-65589800D02*
X131952267Y-65542180D01*
X131952267Y-65542180D02*
X131985600Y-65446942D01*
X131985600Y-65446942D02*
X131985600Y-65351704D01*
X131985600Y-65351704D02*
X131952267Y-65256466D01*
X131952267Y-65256466D02*
X131918933Y-65208847D01*
X131918933Y-65208847D02*
X131852267Y-65161228D01*
X131852267Y-65161228D02*
X131718933Y-65113609D01*
X131718933Y-65113609D02*
X131652267Y-65065990D01*
X131652267Y-65065990D02*
X131618933Y-65018371D01*
X131618933Y-65018371D02*
X131585600Y-64923133D01*
X131585600Y-64923133D02*
X131585600Y-64827895D01*
X131585600Y-64827895D02*
X131618933Y-64732657D01*
X131618933Y-64732657D02*
X131652267Y-64685038D01*
X131652267Y-64685038D02*
X131718933Y-64637419D01*
X131718933Y-64637419D02*
X131885600Y-64637419D01*
X131885600Y-64637419D02*
X131985600Y-64685038D01*
X132285600Y-65637419D02*
X132285600Y-64637419D01*
X132285600Y-64637419D02*
X132452267Y-64637419D01*
X132452267Y-64637419D02*
X132552267Y-64685038D01*
X132552267Y-64685038D02*
X132618934Y-64780276D01*
X132618934Y-64780276D02*
X132652267Y-64875514D01*
X132652267Y-64875514D02*
X132685600Y-65065990D01*
X132685600Y-65065990D02*
X132685600Y-65208847D01*
X132685600Y-65208847D02*
X132652267Y-65399323D01*
X132652267Y-65399323D02*
X132618934Y-65494561D01*
X132618934Y-65494561D02*
X132552267Y-65589800D01*
X132552267Y-65589800D02*
X132452267Y-65637419D01*
X132452267Y-65637419D02*
X132285600Y-65637419D01*
X132952267Y-65351704D02*
X133285600Y-65351704D01*
X132885600Y-65637419D02*
X133118934Y-64637419D01*
X133118934Y-64637419D02*
X133352267Y-65637419D01*
%TO.C,R1*%
D12*
X110246400Y-90012000D02*
X114086400Y-90012000D01*
X114086400Y-91852000D01*
X110246400Y-91852000D01*
X110246400Y-90012000D01*
X115036400Y-90932000D02*
X114086400Y-90932000D01*
X109296400Y-90932000D02*
X110246400Y-90932000D01*
%TO.C,U2*%
X145253400Y-97216200D02*
X147253400Y-97216200D01*
X145253400Y-97216200D02*
X145253400Y-95606200D01*
X157793400Y-96936200D02*
X145543400Y-96936200D01*
X145533400Y-96926200D02*
X145533400Y-91186200D01*
X145533400Y-91176200D02*
X157793400Y-91176200D01*
X157793400Y-91176200D02*
X157793400Y-96936200D01*
%TO.C,U1*%
D13*
X144957800Y-107213400D02*
X144957800Y-93243400D01*
X143052800Y-109118400D02*
X125907800Y-109118400D01*
X143052800Y-91338400D02*
X125907800Y-91338400D01*
X124002800Y-104723400D02*
X122992528Y-104719672D01*
D14*
X124002800Y-93243400D02*
X124002800Y-107213400D01*
D13*
X124002800Y-93243400D02*
X124002800Y-107213400D01*
X122992800Y-95724400D02*
X124002800Y-95724400D01*
X122492800Y-104219672D02*
X122492800Y-96224400D01*
X144957800Y-107213400D02*
G75*
G02*
X143052800Y-109118400I-1905001J1D01*
G01*
X143052800Y-91338400D02*
G75*
G02*
X144957800Y-93243400I-1J-1905001D01*
G01*
X125907800Y-109118400D02*
G75*
G02*
X124002800Y-107213400I0J1905000D01*
G01*
X124002800Y-93243400D02*
G75*
G02*
X125907800Y-91338400I1905000J0D01*
G01*
X122992528Y-104719672D02*
G75*
G02*
X122492828Y-104219672I272J499972D01*
G01*
X122492800Y-96224400D02*
G75*
G02*
X122992800Y-95724400I500000J0D01*
G01*
D15*
X125375800Y-108035400D02*
G75*
G02*
X124871800Y-108035400I-252000J0D01*
G01*
X124871800Y-108035400D02*
G75*
G02*
X125375800Y-108035400I252000J0D01*
G01*
X124495800Y-109178400D02*
G75*
G02*
X123991800Y-109178400I-252000J0D01*
G01*
X123991800Y-109178400D02*
G75*
G02*
X124495800Y-109178400I252000J0D01*
G01*
%TO.C,SW2*%
D12*
X92075000Y-109855000D02*
X106045000Y-109855000D01*
X92075000Y-123825000D02*
X92075000Y-109855000D01*
X106045000Y-109855000D02*
X106045000Y-123825000D01*
X106045000Y-123825000D02*
X92075000Y-123825000D01*
%TO.C,SW1*%
X89535000Y-81915000D02*
X103505000Y-81915000D01*
X89535000Y-95885000D02*
X89535000Y-81915000D01*
X103505000Y-81915000D02*
X103505000Y-95885000D01*
X103505000Y-95885000D02*
X89535000Y-95885000D01*
%TO.C,J2*%
X145940000Y-115460000D02*
X147320000Y-115460000D01*
X145940000Y-116840000D02*
X145940000Y-115460000D01*
X145940000Y-118110000D02*
X145940000Y-136000000D01*
X145940000Y-118110000D02*
X148700000Y-118110000D01*
X145940000Y-136000000D02*
X148700000Y-136000000D01*
X148700000Y-118110000D02*
X148700000Y-136000000D01*
%TO.C,J1*%
X114782600Y-61626600D02*
X142214600Y-61626600D01*
X114782600Y-66833600D02*
X142214600Y-66833600D01*
X114782600Y-83724600D02*
X142214600Y-83724600D01*
X114782600Y-88804600D02*
X114909600Y-61626600D01*
X123358600Y-64353600D02*
X123358600Y-63023600D01*
X124688600Y-64353600D02*
X123358600Y-64353600D01*
X125958600Y-61693600D02*
X133638600Y-61693600D01*
X125958600Y-64353600D02*
X125958600Y-61693600D01*
X125958600Y-64353600D02*
X133638600Y-64353600D01*
X133638600Y-64353600D02*
X133638600Y-61693600D01*
X142214600Y-88804600D02*
X114782600Y-88804600D01*
X142214600Y-88804600D02*
X142214600Y-61626600D01*
%TD*%
M02*
