%TF.GenerationSoftware,KiCad,Pcbnew,10.0.6*%
%TF.CreationDate,2026-10-10T18:48:09-04:00*%
%TF.ProjectId,Starbie,53746172-6269-4652-9e6b-696361645f70,rev?*%
%TF.SameCoordinates,Original*%
%TF.FileFunction,Copper,L2,Bot*%
%TF.FilePolarity,Positive*%
%FSLAX46Y46*%
G04 Gerber Fmt 4.6, Leading zero omitted, Abs format (unit mm)*
G04 Created by KiCad (PCBNEW 10.0.6) date 2026-10-10 18:48:09*
%MOMM*%
%LPD*%
G01*
G04 APERTURE LIST*
G04 Aperture macros list*
%AMRoundRect*
0 Rectangle with rounded corners*
0 $1 Rounding radius*
0 $2 $3 $4 $5 $6 $7 $8 $9 X,Y pos of 4 corners*
0 Add a 4 corners polygon primitive as box body*
4,1,4,$2,$3,$4,$5,$6,$7,$8,$9,$2,$3,0*
0 Add four circle primitives for the rounded corners*
1,1,$1+$1,$2,$3*
1,1,$1+$1,$4,$5*
1,1,$1+$1,$6,$7*
1,1,$1+$1,$8,$9*
0 Add four rect primitives between the rounded corners*
20,1,$1+$1,$2,$3,$4,$5,0*
20,1,$1+$1,$4,$5,$6,$7,0*
20,1,$1+$1,$6,$7,$8,$9,0*
20,1,$1+$1,$8,$9,$2,$3,0*%
G04 Aperture macros list end*
%TA.AperFunction,ComponentPad*%
%ADD10C,2.200000*%
%TD*%
%TA.AperFunction,ComponentPad*%
%ADD11C,1.400000*%
%TD*%
%TA.AperFunction,ComponentPad*%
%ADD12R,1.500000X1.500000*%
%TD*%
%TA.AperFunction,ComponentPad*%
%ADD13C,1.500000*%
%TD*%
%TA.AperFunction,ComponentPad*%
%ADD14R,1.700000X1.700000*%
%TD*%
%TA.AperFunction,ComponentPad*%
%ADD15C,1.700000*%
%TD*%
%TA.AperFunction,ComponentPad*%
%ADD16RoundRect,0.249999X-0.850001X-0.850001X0.850001X-0.850001X0.850001X0.850001X-0.850001X0.850001X0*%
%TD*%
%TA.AperFunction,ComponentPad*%
%ADD17O,1.700000X1.700000*%
%TD*%
%TA.AperFunction,ComponentPad*%
%ADD18C,1.524000*%
%TD*%
%TA.AperFunction,ComponentPad*%
%ADD19RoundRect,0.249999X1.250001X1.250001X-1.250001X1.250001X-1.250001X-1.250001X1.250001X-1.250001X0*%
%TD*%
%TA.AperFunction,ComponentPad*%
%ADD20C,3.000000*%
%TD*%
%TA.AperFunction,ViaPad*%
%ADD21C,0.600000*%
%TD*%
%TA.AperFunction,Conductor*%
%ADD22C,0.200000*%
%TD*%
G04 APERTURE END LIST*
D10*
%TO.P,SW1,1,1_1*%
%TO.N,/Button 1 Net*%
X100533200Y-83845400D03*
%TO.P,SW1,2,2_2*%
%TO.N,GND*%
X94183200Y-86385400D03*
%TD*%
D11*
%TO.P,R3,1*%
%TO.N,/BAT_SENSE*%
X186944000Y-78232000D03*
%TO.P,R3,2*%
%TO.N,GND*%
X194564000Y-78232000D03*
%TD*%
D12*
%TO.P,U2,1,VDD_1*%
%TO.N,+3.3V*%
X147853400Y-94056200D03*
D13*
%TO.P,U2,2,DATA_2*%
%TO.N,/DHT11 DATA*%
X150393400Y-94056200D03*
%TO.P,U2,3,NC_3*%
%TO.N,unconnected-(U2-NC-Pad3)*%
X152933400Y-94056200D03*
%TO.P,U2,4,GND_4*%
%TO.N,GND*%
X155473400Y-94056200D03*
%TD*%
D14*
%TO.P,SW3,1,A_1*%
%TO.N,unconnected-(SW3-A-Pad1)*%
X173482000Y-94157800D03*
D15*
%TO.P,SW3,2,B_2*%
%TO.N,/Battery+*%
X173482000Y-96697800D03*
%TO.P,SW3,3,C_3*%
%TO.N,Net-(SW3-C)*%
X173482000Y-99237800D03*
%TD*%
D10*
%TO.P,SW2,1,1_1*%
%TO.N,/Button 2 Net*%
X101600000Y-111760000D03*
%TO.P,SW2,2,2_2*%
%TO.N,GND*%
X95250000Y-114300000D03*
%TD*%
D16*
%TO.P,D1,1,K_1*%
%TO.N,+5V*%
X161874200Y-79019400D03*
D10*
%TO.P,D1,2,A_2*%
%TO.N,/VBAT*%
X169494200Y-79019400D03*
%TD*%
D14*
%TO.P,J1,1,Pin_1_1*%
%TO.N,GND*%
X123266200Y-59467600D03*
D17*
%TO.P,J1,2,Pin_2_2*%
%TO.N,+3.3V*%
X125806200Y-59467600D03*
%TO.P,J1,3,Pin_3_3*%
%TO.N,/SCL*%
X128346200Y-59467600D03*
%TO.P,J1,4,Pin_4_4*%
%TO.N,/SDA*%
X130886200Y-59467600D03*
%TD*%
D18*
%TO.P,U1,1,D0_1*%
%TO.N,/BAT_SENSE*%
X126923800Y-107848400D03*
%TO.P,U1,2,D1_2*%
%TO.N,/DHT11 DATA*%
X129463800Y-107848400D03*
%TO.P,U1,3,D2_3*%
%TO.N,/Button 1 Net*%
X132003800Y-107848400D03*
%TO.P,U1,4,D3_4*%
%TO.N,/Button 2 Net*%
X134543800Y-107848400D03*
%TO.P,U1,5,D4_5*%
%TO.N,/SDA*%
X137083800Y-107848400D03*
%TO.P,U1,6,D5_6*%
%TO.N,/SCL*%
X139623800Y-107848400D03*
%TO.P,U1,7,D6_7*%
%TO.N,unconnected-(U1-D6-Pad7)*%
X142163800Y-107848400D03*
%TO.P,U1,8,D7_8*%
%TO.N,unconnected-(U1-D7-Pad8)*%
X142163800Y-92608400D03*
%TO.P,U1,9,D8_9*%
%TO.N,unconnected-(U1-D8-Pad9)*%
X139623800Y-92608400D03*
%TO.P,U1,10,D9/BOOT_10*%
%TO.N,unconnected-(U1-D9{slash}BOOT-Pad10)*%
X137083800Y-92608400D03*
%TO.P,U1,11,D10_11*%
%TO.N,unconnected-(U1-D10-Pad11)*%
X134543800Y-92608400D03*
%TO.P,U1,12,3V3_OUT_12*%
%TO.N,+3.3V*%
X132003800Y-92608400D03*
%TO.P,U1,13,GND_13*%
%TO.N,GND*%
X129463800Y-92608400D03*
%TO.P,U1,14,VBUS_14*%
%TO.N,+5V*%
X126923800Y-92608400D03*
%TD*%
D11*
%TO.P,R1,1*%
%TO.N,+3.3V*%
X111531400Y-93370400D03*
%TO.P,R1,2*%
%TO.N,/DHT11 DATA*%
X119151400Y-93370400D03*
%TD*%
%TO.P,R2,1*%
%TO.N,/VBAT*%
X174904400Y-78663800D03*
%TO.P,R2,2*%
%TO.N,/BAT_SENSE*%
X182524400Y-78663800D03*
%TD*%
D14*
%TO.P,J2,1,Pin_1_1*%
%TO.N,+3.3V*%
X147320000Y-116840000D03*
D15*
%TO.P,J2,2,Pin_2_2*%
%TO.N,GND*%
X147320000Y-119380000D03*
%TO.P,J2,3,Pin_3_3*%
%TO.N,/SCL*%
X147320000Y-121920000D03*
%TO.P,J2,4,Pin_4_4*%
%TO.N,/SDA*%
X147320000Y-124460000D03*
%TO.P,J2,5,Pin_5_5*%
%TO.N,unconnected-(J2-Pin_5-Pad5)*%
X147320000Y-127000000D03*
%TO.P,J2,6,Pin_6_6*%
%TO.N,unconnected-(J2-Pin_6-Pad6)*%
X147320000Y-129540000D03*
%TO.P,J2,7,Pin_7_7*%
%TO.N,unconnected-(J2-Pin_7-Pad7)*%
X147320000Y-132080000D03*
%TO.P,J2,8,Pin_8_8*%
%TO.N,unconnected-(J2-Pin_8-Pad8)*%
X147320000Y-134620000D03*
%TD*%
D19*
%TO.P,J3,1,Pin_1_1*%
%TO.N,/Battery+*%
X152582400Y-86614000D03*
D20*
%TO.P,J3,2,Pin_2_2*%
%TO.N,GND*%
X152582400Y-99414000D03*
%TD*%
D21*
%TO.N,/Button 1 Net*%
X123621800Y-103479600D03*
%TO.N,+3.3V*%
X145059400Y-98814000D03*
X108712000Y-88112600D03*
%TO.N,/DHT11 DATA*%
X122275600Y-108813600D03*
X150393400Y-94056200D03*
%TO.N,/Battery+*%
X168478200Y-90500200D03*
%TD*%
%TO.N,/Button 1 Net*%
D22*
X123532400Y-87021717D02*
X123532400Y-103390200D01*
X102673200Y-85985400D02*
X122496083Y-85985400D01*
X123532400Y-103390200D02*
X123621800Y-103479600D01*
X122496083Y-85985400D02*
X123532400Y-87021717D01*
X100533200Y-83845400D02*
X102673200Y-85985400D01*
%TO.N,GND*%
X95250000Y-114300000D02*
X94183200Y-113233200D01*
X122330398Y-86385400D02*
X122330398Y-105322579D01*
X179788200Y-93007800D02*
X156521800Y-93007800D01*
X136269400Y-99414000D02*
X129463800Y-92608400D01*
X152582400Y-114117600D02*
X147320000Y-119380000D01*
X152582400Y-99414000D02*
X136269400Y-99414000D01*
X129503695Y-109310400D02*
X130525800Y-108288295D01*
X155473400Y-94056200D02*
X155473400Y-96523000D01*
X194564000Y-78232000D02*
X179788200Y-93007800D01*
X122330398Y-105322579D02*
X126318219Y-109310400D01*
X155473400Y-96523000D02*
X152582400Y-99414000D01*
X130525800Y-93670400D02*
X129463800Y-92608400D01*
X126318219Y-109310400D02*
X129503695Y-109310400D01*
X94183200Y-113233200D02*
X94183200Y-86385400D01*
X130525800Y-108288295D02*
X130525800Y-93670400D01*
X156521800Y-93007800D02*
X155473400Y-94056200D01*
X152582400Y-99414000D02*
X152582400Y-114117600D01*
X94183200Y-86385400D02*
X122330398Y-86385400D01*
%TO.N,+3.3V*%
X133451600Y-94056200D02*
X147853400Y-94056200D01*
X139183905Y-106786400D02*
X140479695Y-106786400D01*
X91313200Y-115870256D02*
X101052944Y-125610000D01*
X147796346Y-125610000D02*
X149326600Y-124079746D01*
X132003800Y-92608400D02*
X133451600Y-94056200D01*
X111531400Y-90932000D02*
X108712000Y-88112600D01*
X101052944Y-125610000D02*
X147796346Y-125610000D01*
X111531400Y-93370400D02*
X111531400Y-90932000D01*
X141101800Y-107408505D02*
X141101800Y-110621800D01*
X98579186Y-79443829D02*
X91313200Y-86709815D01*
X91313200Y-86709815D02*
X91313200Y-115870256D01*
X140479695Y-106786400D02*
X141101800Y-107408505D01*
X148316854Y-123070000D02*
X146843654Y-123070000D01*
X141101800Y-110621800D02*
X147320000Y-116840000D01*
X147853400Y-96020000D02*
X145059400Y-98814000D01*
X147853400Y-94056200D02*
X147853400Y-96020000D01*
X105829971Y-79443829D02*
X98579186Y-79443829D01*
X146843654Y-123070000D02*
X138561800Y-114788146D01*
X138561800Y-107408505D02*
X139183905Y-106786400D01*
X149326600Y-124079746D02*
X148316854Y-123070000D01*
X125806200Y-59467600D02*
X105829971Y-79443829D01*
X138561800Y-114788146D02*
X138561800Y-107408505D01*
X147320000Y-94589600D02*
X147853400Y-94056200D01*
%TO.N,/DHT11 DATA*%
X129463800Y-107848400D02*
X128401800Y-108910400D01*
X125861800Y-108288295D02*
X125861800Y-91631515D01*
X140261315Y-77232000D02*
X187358214Y-77232000D01*
X126483905Y-108910400D02*
X125861800Y-108288295D01*
X152503200Y-91946400D02*
X150393400Y-94056200D01*
X174643814Y-91946400D02*
X152503200Y-91946400D01*
X119151400Y-93370400D02*
X119151400Y-105689400D01*
X187944000Y-77817786D02*
X187944000Y-78646214D01*
X128401800Y-108910400D02*
X126483905Y-108910400D01*
X125861800Y-91631515D02*
X140261315Y-77232000D01*
X119151400Y-105689400D02*
X122275600Y-108813600D01*
X187358214Y-77232000D02*
X187944000Y-77817786D01*
X187944000Y-78646214D02*
X174643814Y-91946400D01*
%TO.N,/Button 2 Net*%
X101600000Y-111760000D02*
X130632200Y-111760000D01*
X130632200Y-111760000D02*
X134543800Y-107848400D01*
%TO.N,/SCL*%
X195564000Y-77817786D02*
X195564000Y-78646214D01*
X128346200Y-59467600D02*
X129496200Y-58317600D01*
X139623800Y-114223800D02*
X139623800Y-107848400D01*
X176159214Y-98051000D02*
X171189000Y-98051000D01*
X194578214Y-76832000D02*
X195564000Y-77817786D01*
X149876946Y-76832000D02*
X194578214Y-76832000D01*
X171189000Y-98051000D02*
X147320000Y-121920000D01*
X131362546Y-58317600D02*
X149876946Y-76832000D01*
X195564000Y-78646214D02*
X176159214Y-98051000D01*
X147320000Y-121920000D02*
X139623800Y-114223800D01*
X129496200Y-58317600D02*
X131362546Y-58317600D01*
%TO.N,/SDA*%
X97809798Y-113720101D02*
X95829899Y-115700000D01*
X95829899Y-115700000D02*
X94670101Y-115700000D01*
X147320000Y-124460000D02*
X137083800Y-114223800D01*
X137083800Y-114223800D02*
X137083800Y-107848400D01*
X98744872Y-79843829D02*
X110509971Y-79843829D01*
X91713200Y-112743099D02*
X91713200Y-86875501D01*
X137083800Y-107848400D02*
X131212099Y-113720101D01*
X110509971Y-79843829D02*
X130886200Y-59467600D01*
X94670101Y-115700000D02*
X91713200Y-112743099D01*
X91713200Y-86875501D02*
X98744872Y-79843829D01*
X131212099Y-113720101D02*
X97809798Y-113720101D01*
%TO.N,+5V*%
X139039600Y-79019400D02*
X126923800Y-91135200D01*
X126923800Y-91135200D02*
X126923800Y-92608400D01*
X161874200Y-79019400D02*
X139039600Y-79019400D01*
%TO.N,/VBAT*%
X174548800Y-79019400D02*
X174904400Y-78663800D01*
X169494200Y-79019400D02*
X174548800Y-79019400D01*
%TO.N,/Battery+*%
X152582400Y-86614000D02*
X164592000Y-86614000D01*
X164592000Y-86614000D02*
X168478200Y-90500200D01*
%TO.N,/BAT_SENSE*%
X127985800Y-106786400D02*
X126923800Y-107848400D01*
X182524400Y-78663800D02*
X169641800Y-91546400D01*
X169641800Y-91546400D02*
X129023905Y-91546400D01*
X182524400Y-78663800D02*
X186512200Y-78663800D01*
X127985800Y-92584505D02*
X127985800Y-106786400D01*
X186512200Y-78663800D02*
X186944000Y-78232000D01*
X129023905Y-91546400D02*
X127985800Y-92584505D01*
%TD*%
M02*
