%TF.GenerationSoftware,KiCad,Pcbnew,10.0.6*%
%TF.CreationDate,2026-10-06T20:15:23-04:00*%
%TF.ProjectId,Starbie,53746172-6269-4652-9e6b-696361645f70,rev?*%
%TF.SameCoordinates,Original*%
%TF.FileFunction,Copper,L2,Bot*%
%TF.FilePolarity,Positive*%
%FSLAX46Y46*%
G04 Gerber Fmt 4.6, Leading zero omitted, Abs format (unit mm)*
G04 Created by KiCad (PCBNEW 10.0.6) date 2026-10-06 20:15:23*
%MOMM*%
%LPD*%
G01*
G04 APERTURE LIST*
%TA.AperFunction,ComponentPad*%
%ADD10C,1.400000*%
%TD*%
%TA.AperFunction,ComponentPad*%
%ADD11R,1.500000X1.500000*%
%TD*%
%TA.AperFunction,ComponentPad*%
%ADD12C,1.500000*%
%TD*%
%TA.AperFunction,ComponentPad*%
%ADD13C,1.524000*%
%TD*%
%TA.AperFunction,ComponentPad*%
%ADD14C,2.200000*%
%TD*%
%TA.AperFunction,ComponentPad*%
%ADD15R,1.700000X1.700000*%
%TD*%
%TA.AperFunction,ComponentPad*%
%ADD16C,1.700000*%
%TD*%
%TA.AperFunction,ComponentPad*%
%ADD17O,1.700000X1.700000*%
%TD*%
%TA.AperFunction,Conductor*%
%ADD18C,0.200000*%
%TD*%
G04 APERTURE END LIST*
D10*
%TO.P,R1,2*%
%TO.N,/DHT11 DATA*%
X115976400Y-90932000D03*
%TO.P,R1,1*%
%TO.N,+3.3V*%
X108356400Y-90932000D03*
%TD*%
D11*
%TO.P,U2,1,VDD_1*%
%TO.N,+3.3V*%
X147853400Y-94056200D03*
D12*
%TO.P,U2,2,DATA_2*%
%TO.N,/DHT11 DATA*%
X150393400Y-94056200D03*
%TO.P,U2,3,NC_3*%
%TO.N,unconnected-(U2-NC-Pad3)*%
X152933400Y-94056200D03*
%TO.P,U2,4,GND_4*%
%TO.N,GND*%
X155473400Y-94056200D03*
%TD*%
D13*
%TO.P,U1,1,D0_1*%
%TO.N,unconnected-(U1-D0-Pad1)*%
X126923800Y-107848400D03*
%TO.P,U1,2,D1_2*%
%TO.N,/DHT11 DATA*%
X129463800Y-107848400D03*
%TO.P,U1,3,D2_3*%
%TO.N,/Button 1 Net*%
X132003800Y-107848400D03*
%TO.P,U1,4,D3_4*%
%TO.N,/Button 2 Net*%
X134543800Y-107848400D03*
%TO.P,U1,5,D4_5*%
%TO.N,/SDA*%
X137083800Y-107848400D03*
%TO.P,U1,6,D5_6*%
%TO.N,/SCL*%
X139623800Y-107848400D03*
%TO.P,U1,7,D6_7*%
%TO.N,unconnected-(U1-D6-Pad7)*%
X142163800Y-107848400D03*
%TO.P,U1,8,D7_8*%
%TO.N,unconnected-(U1-D7-Pad8)*%
X142163800Y-92608400D03*
%TO.P,U1,9,D8_9*%
%TO.N,unconnected-(U1-D8-Pad9)*%
X139623800Y-92608400D03*
%TO.P,U1,10,D9/BOOT_10*%
%TO.N,unconnected-(U1-D9{slash}BOOT-Pad10)*%
X137083800Y-92608400D03*
%TO.P,U1,11,D10_11*%
%TO.N,unconnected-(U1-D10-Pad11)*%
X134543800Y-92608400D03*
%TO.P,U1,12,3V3_OUT_12*%
%TO.N,+3.3V*%
X132003800Y-92608400D03*
%TO.P,U1,13,GND_13*%
%TO.N,GND*%
X129463800Y-92608400D03*
%TO.P,U1,14,VBUS_14*%
%TO.N,+5V*%
X126923800Y-92608400D03*
%TD*%
D14*
%TO.P,SW2,1,1_1*%
%TO.N,/Button 2 Net*%
X101600000Y-111760000D03*
%TO.P,SW2,2,2_2*%
%TO.N,GND*%
X95250000Y-114300000D03*
%TD*%
%TO.P,SW1,1,1_1*%
%TO.N,/Button 1 Net*%
X99060000Y-83820000D03*
%TO.P,SW1,2,2_2*%
%TO.N,GND*%
X92710000Y-86360000D03*
%TD*%
D15*
%TO.P,J2,1,Pin_1_1*%
%TO.N,+3.3V*%
X147320000Y-116840000D03*
D16*
%TO.P,J2,2,Pin_2_2*%
%TO.N,GND*%
X147320000Y-119380000D03*
%TO.P,J2,3,Pin_3_3*%
%TO.N,/SCL*%
X147320000Y-121920000D03*
%TO.P,J2,4,Pin_4_4*%
%TO.N,/SDA*%
X147320000Y-124460000D03*
%TO.P,J2,5,Pin_5_5*%
%TO.N,unconnected-(J2-Pin_5-Pad5)*%
X147320000Y-127000000D03*
%TO.P,J2,6,Pin_6_6*%
%TO.N,unconnected-(J2-Pin_6-Pad6)*%
X147320000Y-129540000D03*
%TO.P,J2,7,Pin_7_7*%
%TO.N,unconnected-(J2-Pin_7-Pad7)*%
X147320000Y-132080000D03*
%TO.P,J2,8,Pin_8_8*%
%TO.N,unconnected-(J2-Pin_8-Pad8)*%
X147320000Y-134620000D03*
%TD*%
D15*
%TO.P,J1,1,Pin_1_1*%
%TO.N,GND*%
X124688600Y-63023600D03*
D17*
%TO.P,J1,2,Pin_2_2*%
%TO.N,+3.3V*%
X127228600Y-63023600D03*
%TO.P,J1,3,Pin_3_3*%
%TO.N,/SCL*%
X129768600Y-63023600D03*
%TO.P,J1,4,Pin_4_4*%
%TO.N,/SDA*%
X132308600Y-63023600D03*
%TD*%
%TO.N,+3.3V*%
D18*
X108356400Y-90932000D02*
X115036600Y-84251800D01*
X115036600Y-84251800D02*
X120485095Y-84251800D01*
X120485095Y-84251800D02*
X128168400Y-91935105D01*
X129023905Y-93670400D02*
X130941800Y-93670400D01*
X128168400Y-91935105D02*
X128168400Y-92814895D01*
X128168400Y-92814895D02*
X129023905Y-93670400D01*
X130941800Y-93670400D02*
X132003800Y-92608400D01*
%TO.N,/DHT11 DATA*%
X115976400Y-90932000D02*
X115976400Y-94361000D01*
X115976400Y-94361000D02*
X129463800Y-107848400D01*
%TO.N,GND*%
X92710000Y-86360000D02*
X96650000Y-82420000D01*
X123372915Y-61473600D02*
X127304946Y-61473600D01*
X127704946Y-64173600D02*
X125838600Y-64173600D01*
X96650000Y-82420000D02*
X102426515Y-82420000D01*
X102426515Y-82420000D02*
X123372915Y-61473600D01*
X127304946Y-61473600D02*
X128378600Y-62547254D01*
X128378600Y-63499946D02*
X127704946Y-64173600D01*
X128378600Y-62547254D02*
X128378600Y-63499946D01*
X125838600Y-64173600D02*
X124688600Y-63023600D01*
%TO.N,/Button 2 Net*%
X134543800Y-107848400D02*
X130632200Y-111760000D01*
X130632200Y-111760000D02*
X101600000Y-111760000D01*
%TO.N,/Button 1 Net*%
X132003800Y-107848400D02*
X130941800Y-108910400D01*
X119883200Y-108910400D02*
X99060000Y-88087200D01*
X130941800Y-108910400D02*
X119883200Y-108910400D01*
X99060000Y-88087200D02*
X99060000Y-83820000D01*
%TO.N,GND*%
X129463800Y-92608400D02*
X123138600Y-86283200D01*
X123138600Y-61707915D02*
X123372915Y-61473600D01*
X123138600Y-86283200D02*
X123138600Y-61707915D01*
%TO.N,+3.3V*%
X147853400Y-94056200D02*
X148903400Y-95106200D01*
X149368525Y-91546400D02*
X133065800Y-91546400D01*
X148903400Y-95106200D02*
X150828325Y-95106200D01*
X150828325Y-95106200D02*
X151443400Y-94491125D01*
X151443400Y-94491125D02*
X151443400Y-93621275D01*
X151443400Y-93621275D02*
X149368525Y-91546400D01*
X133065800Y-91546400D02*
X132003800Y-92608400D01*
X127228600Y-63023600D02*
X126078600Y-61873600D01*
X126078600Y-61873600D02*
X123538600Y-61873600D01*
X123538600Y-61873600D02*
X123538600Y-65716475D01*
X123538600Y-65716475D02*
X151443400Y-93621275D01*
%TO.N,GND*%
X124688600Y-63023600D02*
X133801000Y-72136000D01*
X133801000Y-72136000D02*
X133801000Y-72383800D01*
X133801000Y-72383800D02*
X155473400Y-94056200D01*
X95250000Y-114300000D02*
X92710000Y-111760000D01*
X92710000Y-111760000D02*
X92710000Y-86360000D01*
%TO.N,/SDA*%
X132308600Y-63023600D02*
X156923400Y-87638400D01*
X156923400Y-87638400D02*
X156923400Y-114856600D01*
X156923400Y-114856600D02*
X147320000Y-124460000D01*
%TO.N,/SCL*%
X129768600Y-63023600D02*
X156523400Y-89778400D01*
X156523400Y-89778400D02*
X156523400Y-112716600D01*
X156523400Y-112716600D02*
X147320000Y-121920000D01*
%TO.N,/DHT11 DATA*%
X150393400Y-94056200D02*
X149343400Y-93006200D01*
X149343400Y-93006200D02*
X144306000Y-93006200D01*
X144306000Y-93006200D02*
X129463800Y-107848400D01*
%TO.N,+3.3V*%
X147320000Y-116840000D02*
X147320000Y-94589600D01*
X147320000Y-94589600D02*
X147853400Y-94056200D01*
%TO.N,GND*%
X155473400Y-94056200D02*
X155473400Y-111226600D01*
X155473400Y-111226600D02*
X147320000Y-119380000D01*
%TO.N,/SCL*%
X139623800Y-107848400D02*
X139623800Y-114223800D01*
X139623800Y-114223800D02*
X147320000Y-121920000D01*
%TO.N,/SDA*%
X137083800Y-107848400D02*
X137083800Y-114223800D01*
X137083800Y-114223800D02*
X147320000Y-124460000D01*
%TO.N,*%
X131089400Y-74828400D02*
X130937000Y-74676000D01*
X131140200Y-74828400D02*
X131089400Y-74828400D01*
%TD*%
M02*
